<svg xmlns="http://www.w3.org/2000/svg" viewBox="0 0 1920 1080" preserveAspectRatio="xMidYMid slice"><defs><linearGradient id="bg" x2="0" y2="1"><stop stop-color="#02030a"/><stop offset=".55" stop-color="#071529"/><stop offset="1" stop-color="#03060d"/></linearGradient><radialGradient id="aur"><stop stop-color="#7fffd4" stop-opacity=".65"/><stop offset=".5" stop-color="#31d6a0" stop-opacity=".12"/><stop offset="1" stop-color="#31d6a0" stop-opacity="0"/></radialGradient><clipPath id="earth"><circle cx="950" cy="1180" r="760"/></clipPath></defs><rect width="1920" height="1080" fill="url(#bg)"/><ellipse cx="950" cy="560" rx="920" ry="230" fill="url(#aur)"/><g fill="none" stroke-linecap="round"><path d="M-100 560 Q430 350 930 540 T2020 450" stroke="#47f0b5" stroke-width="18" opacity=".28"/><path d="M-80 585 Q450 410 920 570 T2020 485" stroke="#a5ffdc" stroke-width="7" opacity=".48"/><path d="M-40 610 Q470 470 940 600 T1990 520" stroke="#5ee8ff" stroke-width="3" opacity=".5"/></g><g fill="#fff" opacity=".9"><circle cx="90" cy="160" r="2"/><circle cx="210" cy="350" r="1"/><circle cx="410" cy="90" r="1.5"/><circle cx="640" cy="300" r="2"/><circle cx="840" cy="120" r="1"/><circle cx="1160" cy="190" r="1.5"/><circle cx="1390" cy="80" r="2"/><circle cx="1660" cy="270" r="1"/><circle cx="1810" cy="120" r="1.7"/></g><circle cx="950" cy="1180" r="760" fill="#020812" stroke="#54e8d0" stroke-width="12"/><image href="/assets/earth/earth_lights_2048.png" x="190" y="420" width="1520" height="1520" preserveAspectRatio="xMidYMid slice" clip-path="url(#earth)" opacity=".9"/><ellipse cx="950" cy="600" rx="760" ry="160" fill="none" stroke="#7affd8" stroke-width="32" opacity=".3"/></svg>